<svg class="icon"><use xlink:href="#right-arrow"></use></svg>
<svg xmlns="http://www.w3.org/2000/svg" viewBox="0 0 1440 500" class="waves"><path d="M-126.16,60.77C-562.86,48.89-879,439.5-879,439.5H1857s-459.89-175.85-768.75-188.74c-215.37-9-331.6,66.63-549.4,53.24C254.85,286.54,250.89,71-126.16,60.77Z" style="fill:#d5dbeb"/><path d="M-127.16,114.57C-563.86,102.69-880,493.31-880,493.31H1856s-459.89-175.85-768.75-188.74c-215.37-9-331.6,66.63-549.4,53.24C253.85,340.34,249.89,124.83-127.16,114.57Z" style="fill:#dbe1ee"/><path d="M-123.16,165.57C-559.86,153.69-876,544.31-876,544.31H1860s-459.89-175.85-768.75-188.74c-215.37-9-331.6,66.63-549.4,53.24C257.85,391.34,253.89,175.83-123.16,165.57Z" style="fill:#e4e8f2"/><path d="M-126.16,219.57C-562.86,207.69-879,598.31-879,598.31H1857s-459.89-175.85-768.75-188.74c-215.37-9-331.6,66.63-549.4,53.24C254.85,445.34,250.89,229.83-126.16,219.57Z" style="fill:#f0f2f8"/></svg>
<svg class="icon"><use xlink:href="#right-arrow"></use></svg>
<svg class="icon"><use xlink:href="#right-arrow"></use></svg>
<svg class="icon"><use xlink:href="#right-arrow"></use></svg>
